<svg width="93" height="12" viewBox="0 0 93 12" fill="none" xmlns="http://www.w3.org/2000/svg">
<path d="M0.488 0.599999H4.892C4.988 0.599999 5.072 0.635999 5.144 0.707999C5.216 0.772 5.252 0.856 5.252 0.96C5.252 1.064 5.216 1.148 5.144 1.212C5.072 1.276 4.988 1.308 4.892 1.308H0.764L0.884 1.104V4.476L0.752 4.32H4.352C4.448 4.32 4.532 4.356 4.604 4.428C4.676 4.5 4.712 4.584 4.712 4.68C4.712 4.784 4.676 4.868 4.604 4.932C4.532 4.996 4.448 5.028 4.352 5.028H0.776L0.884 4.908V8.364L0.824 8.292H4.892C4.988 8.292 5.072 8.328 5.144 8.4C5.216 8.472 5.252 8.556 5.252 8.652C5.252 8.756 5.216 8.84 5.144 8.904C5.072 8.968 4.988 9 4.892 9H0.488C0.392 9 0.308 8.964 0.236 8.892C0.164 8.82 0.128 8.736 0.128 8.64V0.96C0.128 0.864 0.164 0.779999 0.236 0.707999C0.308 0.635999 0.392 0.599999 0.488 0.599999ZM6.60031 2.808C6.72031 2.808 6.81631 2.86 6.88831 2.964L11.1363 8.46C11.1923 8.524 11.2203 8.596 11.2203 8.676C11.2203 8.772 11.1843 8.856 11.1123 8.928C11.0403 9 10.9563 9.036 10.8603 9.036C10.7483 9.036 10.6483 8.984 10.5603 8.88L6.30031 3.384C6.25231 3.328 6.22831 3.256 6.22831 3.168C6.22831 3.064 6.26431 2.98 6.33631 2.916C6.41631 2.844 6.50431 2.808 6.60031 2.808ZM6.60031 9.036C6.52031 9.036 6.44031 9.008 6.36031 8.952C6.28831 8.896 6.25231 8.816 6.25231 8.712C6.25231 8.624 6.28031 8.548 6.33631 8.484L8.36431 5.88L8.76031 6.456L6.88831 8.892C6.81631 8.988 6.72031 9.036 6.60031 9.036ZM10.8603 2.808C10.9643 2.808 11.0443 2.84 11.1003 2.904C11.1643 2.96 11.1963 3.032 11.1963 3.12C11.1963 3.16 11.1883 3.2 11.1723 3.24C11.1643 3.28 11.1443 3.316 11.1123 3.348L9.08431 6.012L8.71231 5.436L10.5603 2.964C10.6483 2.86 10.7483 2.808 10.8603 2.808ZM15.4968 2.82C16.0408 2.82 16.5208 2.956 16.9368 3.228C17.3608 3.492 17.6968 3.86 17.9448 4.332C18.1928 4.796 18.3168 5.332 18.3168 5.94C18.3168 6.548 18.1928 7.088 17.9448 7.56C17.6968 8.032 17.3608 8.404 16.9368 8.676C16.5128 8.948 16.0368 9.084 15.5088 9.084C15.2288 9.084 14.9608 9.044 14.7048 8.964C14.4568 8.876 14.2288 8.76 14.0208 8.616C13.8128 8.472 13.6288 8.304 13.4688 8.112C13.3088 7.912 13.1808 7.696 13.0848 7.464L13.3008 7.308V11.04C13.3008 11.136 13.2648 11.22 13.1928 11.292C13.1288 11.364 13.0448 11.4 12.9408 11.4C12.8368 11.4 12.7488 11.364 12.6768 11.292C12.6128 11.22 12.5808 11.136 12.5808 11.04V3.216C12.5808 3.112 12.6128 3.024 12.6768 2.952C12.7408 2.88 12.8288 2.844 12.9408 2.844C13.0448 2.844 13.1288 2.88 13.1928 2.952C13.2648 3.024 13.3008 3.112 13.3008 3.216V4.512L13.1328 4.416C13.2128 4.168 13.3288 3.948 13.4808 3.756C13.6408 3.556 13.8248 3.388 14.0328 3.252C14.2408 3.108 14.4688 3 14.7168 2.928C14.9648 2.856 15.2248 2.82 15.4968 2.82ZM15.4368 3.492C15.0048 3.492 14.6248 3.6 14.2968 3.816C13.9688 4.024 13.7088 4.312 13.5168 4.68C13.3328 5.04 13.2408 5.46 13.2408 5.94C13.2408 6.412 13.3328 6.836 13.5168 7.212C13.7088 7.588 13.9688 7.884 14.2968 8.1C14.6248 8.308 15.0048 8.412 15.4368 8.412C15.8608 8.412 16.2328 8.308 16.5528 8.1C16.8808 7.884 17.1408 7.588 17.3328 7.212C17.5248 6.836 17.6208 6.412 17.6208 5.94C17.6208 5.468 17.5248 5.048 17.3328 4.68C17.1408 4.312 16.8808 4.024 16.5528 3.816C16.2328 3.6 15.8608 3.492 15.4368 3.492ZM25.5702 5.928C25.5702 6.536 25.4382 7.084 25.1742 7.572C24.9102 8.052 24.5502 8.432 24.0942 8.712C23.6382 8.984 23.1182 9.12 22.5342 9.12C21.9662 9.12 21.4502 8.984 20.9862 8.712C20.5302 8.432 20.1662 8.052 19.8942 7.572C19.6302 7.084 19.4982 6.536 19.4982 5.928C19.4982 5.312 19.6302 4.764 19.8942 4.284C20.1662 3.804 20.5302 3.424 20.9862 3.144C21.4502 2.864 21.9662 2.724 22.5342 2.724C23.1182 2.724 23.6382 2.864 24.0942 3.144C24.5502 3.424 24.9102 3.804 25.1742 4.284C25.4382 4.764 25.5702 5.312 25.5702 5.928ZM24.8502 5.928C24.8502 5.44 24.7502 5.008 24.5502 4.632C24.3502 4.248 24.0742 3.948 23.7222 3.732C23.3782 3.508 22.9822 3.396 22.5342 3.396C22.1022 3.396 21.7102 3.508 21.3582 3.732C21.0062 3.948 20.7262 4.248 20.5182 4.632C20.3182 5.008 20.2182 5.44 20.2182 5.928C20.2182 6.416 20.3182 6.848 20.5182 7.224C20.7262 7.6 21.0062 7.9 21.3582 8.124C21.7102 8.34 22.1022 8.448 22.5342 8.448C22.9822 8.448 23.3782 8.34 23.7222 8.124C24.0742 7.9 24.3502 7.6 24.5502 7.224C24.7502 6.848 24.8502 6.416 24.8502 5.928ZM27.4603 9C27.3483 9 27.2603 8.964 27.1963 8.892C27.1323 8.82 27.1003 8.736 27.1003 8.64V3.264C27.1003 3.168 27.1323 3.084 27.1963 3.012C27.2683 2.94 27.3563 2.904 27.4603 2.904C27.5643 2.904 27.6483 2.94 27.7123 3.012C27.7843 3.084 27.8203 3.168 27.8203 3.264V5.064L27.6403 5.1C27.6643 4.82 27.7323 4.544 27.8443 4.272C27.9643 3.992 28.1243 3.736 28.3243 3.504C28.5243 3.272 28.7603 3.084 29.0323 2.94C29.3123 2.796 29.6243 2.724 29.9683 2.724C30.1123 2.724 30.2523 2.756 30.3883 2.82C30.5243 2.876 30.5923 2.972 30.5923 3.108C30.5923 3.228 30.5603 3.32 30.4963 3.384C30.4323 3.448 30.3563 3.48 30.2683 3.48C30.1963 3.48 30.1163 3.46 30.0283 3.42C29.9483 3.38 29.8403 3.36 29.7043 3.36C29.4803 3.36 29.2563 3.428 29.0323 3.564C28.8083 3.692 28.6043 3.868 28.4203 4.092C28.2363 4.316 28.0883 4.568 27.9763 4.848C27.8723 5.12 27.8203 5.396 27.8203 5.676V8.64C27.8203 8.736 27.7843 8.82 27.7123 8.892C27.6403 8.964 27.5563 9 27.4603 9ZM31.3215 2.892H34.1175C34.2135 2.892 34.2935 2.928 34.3575 3C34.4215 3.064 34.4535 3.144 34.4535 3.24C34.4535 3.328 34.4215 3.404 34.3575 3.468C34.2935 3.532 34.2135 3.564 34.1175 3.564H31.3215C31.2255 3.564 31.1415 3.532 31.0695 3.468C31.0055 3.396 30.9735 3.316 30.9735 3.228C30.9735 3.132 31.0055 3.052 31.0695 2.988C31.1415 2.924 31.2255 2.892 31.3215 2.892ZM32.5575 1.2C32.6615 1.2 32.7455 1.236 32.8095 1.308C32.8815 1.38 32.9175 1.464 32.9175 1.56V7.584C32.9175 7.808 32.9455 7.976 33.0015 8.088C33.0655 8.2 33.1455 8.276 33.2415 8.316C33.3375 8.348 33.4335 8.364 33.5295 8.364C33.5935 8.364 33.6495 8.356 33.6975 8.34C33.7535 8.316 33.8135 8.304 33.8775 8.304C33.9495 8.304 34.0095 8.332 34.0575 8.388C34.1135 8.444 34.1415 8.516 34.1415 8.604C34.1415 8.716 34.0775 8.812 33.9495 8.892C33.8215 8.964 33.6695 9 33.4935 9C33.4215 9 33.3135 8.996 33.1695 8.988C33.0255 8.972 32.8775 8.928 32.7255 8.856C32.5735 8.776 32.4455 8.64 32.3415 8.448C32.2455 8.256 32.1975 7.98 32.1975 7.62V1.56C32.1975 1.464 32.2295 1.38 32.2935 1.308C32.3655 1.236 32.4535 1.2 32.5575 1.2ZM41.2852 0.167999C41.4052 0.167999 41.5332 0.179999 41.6692 0.204C41.8132 0.228 41.9372 0.272 42.0412 0.335999C42.1452 0.391999 42.1972 0.48 42.1972 0.599999C42.1972 0.688 42.1652 0.768 42.1012 0.84C42.0372 0.904 41.9652 0.935999 41.8852 0.935999C41.8052 0.935999 41.7052 0.915999 41.5852 0.875999C41.4652 0.828 41.3372 0.804 41.2012 0.804C41.0332 0.804 40.8892 0.844 40.7692 0.924C40.6492 0.996 40.5572 1.104 40.4932 1.248C40.4292 1.384 40.3972 1.552 40.3972 1.752V8.64C40.3972 8.736 40.3612 8.82 40.2892 8.892C40.2252 8.964 40.1412 9 40.0372 9C39.9332 9 39.8452 8.964 39.7732 8.892C39.7092 8.82 39.6772 8.736 39.6772 8.64V1.752C39.6772 1.24 39.8252 0.848 40.1212 0.576C40.4252 0.303999 40.8132 0.167999 41.2852 0.167999ZM41.7412 2.988C41.8372 2.988 41.9172 3.02 41.9812 3.084C42.0452 3.148 42.0772 3.228 42.0772 3.324C42.0772 3.42 42.0452 3.5 41.9812 3.564C41.9172 3.628 41.8372 3.66 41.7412 3.66H38.8012C38.7132 3.66 38.6332 3.628 38.5612 3.564C38.4972 3.492 38.4652 3.412 38.4652 3.324C38.4652 3.22 38.4972 3.14 38.5612 3.084C38.6332 3.02 38.7132 2.988 38.8012 2.988H41.7412ZM43.7494 9C43.6374 9 43.5494 8.964 43.4854 8.892C43.4214 8.82 43.3894 8.736 43.3894 8.64V3.264C43.3894 3.168 43.4214 3.084 43.4854 3.012C43.5574 2.94 43.6454 2.904 43.7494 2.904C43.8534 2.904 43.9374 2.94 44.0014 3.012C44.0734 3.084 44.1094 3.168 44.1094 3.264V5.064L43.9294 5.1C43.9534 4.82 44.0214 4.544 44.1334 4.272C44.2534 3.992 44.4134 3.736 44.6134 3.504C44.8134 3.272 45.0494 3.084 45.3214 2.94C45.6014 2.796 45.9134 2.724 46.2574 2.724C46.4014 2.724 46.5414 2.756 46.6774 2.82C46.8134 2.876 46.8814 2.972 46.8814 3.108C46.8814 3.228 46.8494 3.32 46.7854 3.384C46.7214 3.448 46.6454 3.48 46.5574 3.48C46.4854 3.48 46.4054 3.46 46.3174 3.42C46.2374 3.38 46.1294 3.36 45.9934 3.36C45.7694 3.36 45.5454 3.428 45.3214 3.564C45.0974 3.692 44.8934 3.868 44.7094 4.092C44.5254 4.316 44.3774 4.568 44.2654 4.848C44.1614 5.12 44.1094 5.396 44.1094 5.676V8.64C44.1094 8.736 44.0734 8.82 44.0014 8.892C43.9294 8.964 43.8454 9 43.7494 9ZM53.4491 5.928C53.4491 6.536 53.3171 7.084 53.0531 7.572C52.7891 8.052 52.4291 8.432 51.9731 8.712C51.5171 8.984 50.9971 9.12 50.4131 9.12C49.8451 9.12 49.3291 8.984 48.8651 8.712C48.4091 8.432 48.0451 8.052 47.7731 7.572C47.5091 7.084 47.3771 6.536 47.3771 5.928C47.3771 5.312 47.5091 4.764 47.7731 4.284C48.0451 3.804 48.4091 3.424 48.8651 3.144C49.3291 2.864 49.8451 2.724 50.4131 2.724C50.9971 2.724 51.5171 2.864 51.9731 3.144C52.4291 3.424 52.7891 3.804 53.0531 4.284C53.3171 4.764 53.4491 5.312 53.4491 5.928ZM52.7291 5.928C52.7291 5.44 52.6291 5.008 52.4291 4.632C52.2291 4.248 51.9531 3.948 51.6011 3.732C51.2571 3.508 50.8611 3.396 50.4131 3.396C49.9811 3.396 49.5891 3.508 49.2371 3.732C48.8851 3.948 48.6051 4.248 48.3971 4.632C48.1971 5.008 48.0971 5.44 48.0971 5.928C48.0971 6.416 48.1971 6.848 48.3971 7.224C48.6051 7.6 48.8851 7.9 49.2371 8.124C49.5891 8.34 49.9811 8.448 50.4131 8.448C50.8611 8.448 51.2571 8.34 51.6011 8.124C51.9531 7.9 52.2291 7.6 52.4291 7.224C52.6291 6.848 52.7291 6.416 52.7291 5.928ZM57.7393 2.82C58.2353 2.82 58.6593 2.952 59.0113 3.216C59.3633 3.472 59.6033 3.856 59.7313 4.368L59.5633 4.416L59.6353 4.2C59.7393 3.96 59.9113 3.736 60.1513 3.528C60.3993 3.312 60.6793 3.14 60.9913 3.012C61.3033 2.884 61.6193 2.82 61.9393 2.82C62.4433 2.82 62.8473 2.928 63.1513 3.144C63.4633 3.36 63.6873 3.652 63.8233 4.02C63.9673 4.38 64.0393 4.788 64.0393 5.244V8.64C64.0393 8.736 64.0033 8.82 63.9313 8.892C63.8673 8.964 63.7833 9 63.6793 9C63.5753 9 63.4873 8.964 63.4153 8.892C63.3513 8.82 63.3193 8.736 63.3193 8.64V5.28C63.3193 4.952 63.2673 4.652 63.1633 4.38C63.0593 4.108 62.8953 3.892 62.6713 3.732C62.4473 3.572 62.1473 3.492 61.7713 3.492C61.4433 3.492 61.1273 3.572 60.8233 3.732C60.5273 3.892 60.2833 4.108 60.0912 4.38C59.9073 4.652 59.8153 4.952 59.8153 5.28V8.64C59.8153 8.736 59.7793 8.82 59.7073 8.892C59.6433 8.964 59.5593 9 59.4553 9C59.3513 9 59.2633 8.964 59.1913 8.892C59.1273 8.82 59.0953 8.736 59.0953 8.64V5.244C59.0953 4.916 59.0473 4.62 58.9513 4.356C58.8553 4.092 58.6993 3.884 58.4833 3.732C58.2673 3.572 57.9753 3.492 57.6073 3.492C57.2793 3.492 56.9673 3.572 56.6713 3.732C56.3833 3.884 56.1473 4.092 55.9633 4.356C55.7873 4.62 55.6993 4.916 55.6993 5.244V8.64C55.6993 8.736 55.6633 8.82 55.5913 8.892C55.5193 8.964 55.4353 9 55.3393 9C55.2273 9 55.1393 8.964 55.0753 8.892C55.0113 8.82 54.9793 8.736 54.9793 8.64V3.264C54.9793 3.168 55.0113 3.084 55.0753 3.012C55.1473 2.94 55.2353 2.904 55.3393 2.904C55.4433 2.904 55.5273 2.94 55.5913 3.012C55.6633 3.084 55.6993 3.168 55.6993 3.264V4.38L55.3753 4.824C55.3993 4.584 55.4753 4.344 55.6033 4.104C55.7393 3.864 55.9153 3.648 56.1313 3.456C56.3473 3.264 56.5913 3.112 56.8633 3C57.1433 2.88 57.4353 2.82 57.7393 2.82ZM72.0018 2.82C72.5058 2.82 72.9138 2.928 73.2258 3.144C73.5378 3.36 73.7658 3.652 73.9098 4.02C74.0618 4.388 74.1378 4.796 74.1378 5.244V8.64C74.1378 8.736 74.1018 8.82 74.0298 8.892C73.9578 8.964 73.8738 9 73.7778 9C73.6658 9 73.5778 8.964 73.5138 8.892C73.4498 8.82 73.4178 8.736 73.4178 8.64V5.244C73.4178 4.916 73.3658 4.62 73.2618 4.356C73.1658 4.092 73.0058 3.884 72.7818 3.732C72.5578 3.572 72.2578 3.492 71.8818 3.492C71.5458 3.492 71.2258 3.572 70.9218 3.732C70.6258 3.884 70.3858 4.092 70.2018 4.356C70.0178 4.62 69.9258 4.916 69.9258 5.244V8.64C69.9258 8.736 69.8898 8.82 69.8178 8.892C69.7458 8.964 69.6618 9 69.5658 9C69.4538 9 69.3658 8.964 69.3018 8.892C69.2378 8.82 69.2058 8.736 69.2058 8.64V0.48C69.2058 0.383999 69.2378 0.299999 69.3018 0.228C69.3738 0.156 69.4618 0.12 69.5658 0.12C69.6698 0.12 69.7538 0.156 69.8178 0.228C69.8898 0.299999 69.9258 0.383999 69.9258 0.48V4.368L69.6498 4.788C69.6658 4.54 69.7418 4.3 69.8778 4.068C70.0218 3.828 70.2058 3.616 70.4298 3.432C70.6538 3.24 70.9018 3.092 71.1738 2.988C71.4458 2.876 71.7218 2.82 72.0018 2.82ZM78.7981 9.12C78.1821 9.12 77.6381 8.988 77.1661 8.724C76.6941 8.46 76.3261 8.092 76.0621 7.62C75.7981 7.148 75.6661 6.596 75.6661 5.964C75.6661 5.284 75.7981 4.704 76.0621 4.224C76.3341 3.744 76.6821 3.376 77.1061 3.12C77.5381 2.856 77.9941 2.724 78.4741 2.724C78.8261 2.724 79.1661 2.788 79.4941 2.916C79.8301 3.036 80.1261 3.22 80.3821 3.468C80.6461 3.708 80.8541 4.004 81.0061 4.356C81.1661 4.708 81.2541 5.116 81.2701 5.58C81.2621 5.676 81.2221 5.76 81.1501 5.832C81.0781 5.896 80.9941 5.928 80.8981 5.928H76.0861L75.9421 5.28H80.6701L80.5141 5.424V5.184C80.4821 4.808 80.3621 4.488 80.1541 4.224C79.9461 3.96 79.6941 3.76 79.3981 3.624C79.1021 3.488 78.7941 3.42 78.4741 3.42C78.2341 3.42 77.9861 3.468 77.7301 3.564C77.4821 3.66 77.2541 3.812 77.0461 4.02C76.8461 4.22 76.6821 4.48 76.5541 4.8C76.4261 5.112 76.3621 5.484 76.3621 5.916C76.3621 6.388 76.4581 6.816 76.6501 7.2C76.8421 7.584 77.1181 7.888 77.4781 8.112C77.8461 8.336 78.2821 8.448 78.7861 8.448C79.0661 8.448 79.3181 8.408 79.5421 8.328C79.7661 8.248 79.9621 8.144 80.1301 8.016C80.2981 7.88 80.4381 7.74 80.5501 7.596C80.6381 7.524 80.7261 7.488 80.8141 7.488C80.8941 7.488 80.9621 7.52 81.0181 7.584C81.0821 7.648 81.1141 7.72 81.1141 7.8C81.1141 7.896 81.0741 7.98 80.9941 8.052C80.7541 8.34 80.4421 8.592 80.0581 8.808C79.6741 9.016 79.2541 9.12 78.7981 9.12ZM83.1713 9C83.0593 9 82.9713 8.964 82.9073 8.892C82.8433 8.82 82.8113 8.736 82.8113 8.64V3.264C82.8113 3.168 82.8433 3.084 82.9073 3.012C82.9793 2.94 83.0673 2.904 83.1713 2.904C83.2753 2.904 83.3593 2.94 83.4233 3.012C83.4953 3.084 83.5313 3.168 83.5313 3.264V5.064L83.3513 5.1C83.3753 4.82 83.4433 4.544 83.5553 4.272C83.6753 3.992 83.8353 3.736 84.0353 3.504C84.2353 3.272 84.4713 3.084 84.7433 2.94C85.0233 2.796 85.3353 2.724 85.6793 2.724C85.8233 2.724 85.9633 2.756 86.0993 2.82C86.2353 2.876 86.3033 2.972 86.3033 3.108C86.3033 3.228 86.2713 3.32 86.2073 3.384C86.1433 3.448 86.0673 3.48 85.9793 3.48C85.9073 3.48 85.8273 3.46 85.7393 3.42C85.6593 3.38 85.5513 3.36 85.4153 3.36C85.1913 3.36 84.9673 3.428 84.7433 3.564C84.5193 3.692 84.3153 3.868 84.1313 4.092C83.9473 4.316 83.7993 4.568 83.6873 4.848C83.5833 5.12 83.5313 5.396 83.5313 5.676V8.64C83.5313 8.736 83.4953 8.82 83.4233 8.892C83.3513 8.964 83.2673 9 83.1713 9ZM89.9309 9.12C89.3149 9.12 88.7709 8.988 88.2989 8.724C87.8269 8.46 87.4589 8.092 87.1949 7.62C86.9309 7.148 86.7989 6.596 86.7989 5.964C86.7989 5.284 86.9309 4.704 87.1949 4.224C87.4669 3.744 87.8149 3.376 88.2389 3.12C88.6709 2.856 89.1269 2.724 89.6069 2.724C89.9589 2.724 90.2989 2.788 90.6269 2.916C90.9629 3.036 91.2589 3.22 91.5149 3.468C91.7789 3.708 91.9869 4.004 92.1389 4.356C92.2989 4.708 92.3869 5.116 92.4029 5.58C92.3949 5.676 92.3549 5.76 92.2829 5.832C92.2109 5.896 92.1269 5.928 92.0309 5.928H87.2189L87.0749 5.28H91.8029L91.6469 5.424V5.184C91.6149 4.808 91.4949 4.488 91.2869 4.224C91.0789 3.96 90.8269 3.76 90.5309 3.624C90.2349 3.488 89.9269 3.42 89.6069 3.42C89.3669 3.42 89.1189 3.468 88.8629 3.564C88.6149 3.66 88.3869 3.812 88.1789 4.02C87.9789 4.22 87.8149 4.48 87.6869 4.8C87.5589 5.112 87.4949 5.484 87.4949 5.916C87.4949 6.388 87.5909 6.816 87.7829 7.2C87.9749 7.584 88.2509 7.888 88.6109 8.112C88.9789 8.336 89.4149 8.448 89.9189 8.448C90.1989 8.448 90.4509 8.408 90.6749 8.328C90.8989 8.248 91.0949 8.144 91.2629 8.016C91.4309 7.88 91.5709 7.74 91.6829 7.596C91.7709 7.524 91.8589 7.488 91.9469 7.488C92.0269 7.488 92.0949 7.52 92.1509 7.584C92.2149 7.648 92.2469 7.72 92.2469 7.8C92.2469 7.896 92.2069 7.98 92.1269 8.052C91.8869 8.34 91.5749 8.592 91.1909 8.808C90.8069 9.016 90.3869 9.12 89.9309 9.12Z" fill="white"/>
</svg>
